<svg width="63" height="47" viewBox="0 0 63 47" fill="none" xmlns="http://www.w3.org/2000/svg">
<path d="M25.6581 26.9243C19.7985 25.2504 4.78158 18.2155 2.36734 26.6668C-1.0352 37.6628 9.36654 37.6754 15.2323 37.7819C28.6127 36.8787 32.5269 35.8664 37.0364 32.5928C39.9303 30.4921 42.9271 29.5485 43.7766 25.8335C44.6261 22.1184 40.9956 18.5571 37.4592 19.0337C33.9229 19.5104 31.3737 21.5165 31.042 24.8494C30.4282 26.9981 27.7769 27.5296 25.6581 26.9243Z" fill="#2A5E69"/>
<path d="M36.6637 27.6919C42.5232 26.018 57.5402 18.983 59.9544 27.4343C63.357 38.4303 52.9552 38.443 47.0895 38.5494C33.7091 37.6463 29.7949 36.634 25.2854 33.3604C22.3915 31.2597 19.3947 30.3161 18.5452 26.601C17.6957 22.886 21.3262 19.3247 24.8625 19.8013C28.3989 20.2779 30.9481 22.284 31.2798 25.617C31.8936 27.7657 34.5448 28.2971 36.6637 27.6919Z" fill="#FFB496"/>
<path d="M31.2441 0C34.6206 0.000162972 37.3573 2.73778 37.3574 6.11426C37.3574 6.52637 37.317 6.92911 37.2393 7.31836C36.6997 11.3846 33.4847 16.0131 31.2764 16.0137C29.068 16.0137 26.6605 12.0744 25.5215 8.27148C25.2685 7.60067 25.1299 6.87359 25.1299 6.11426C25.13 2.73768 27.8675 0 31.2441 0ZM31.4014 4.78711C30.5767 4.78717 29.9082 5.45657 29.9082 6.28125C29.9084 7.10573 30.5768 7.77436 31.4014 7.77441C32.2259 7.77441 32.8943 7.10577 32.8945 6.28125C32.8945 5.45654 32.2261 4.78711 31.4014 4.78711Z" fill="#2A5E69"/>
</svg>
